<?xml version="1.0" encoding="UTF-8"?>
<svg version="1.1" xmlns="http://www.w3.org/2000/svg" width="930" height="932">
<path d="M0 0 C306.9 0 613.8 0 930 0 C930 307.56 930 615.12 930 932 C623.1 932 316.2 932 0 932 C0 624.44 0 316.88 0 0 Z " fill="#334489" transform="translate(0,0)"/>
<path d="M0 0 C11.55 0 23.1 0 35 0 C35 0.66 35 1.32 35 2 C36.11632812 1.97679687 37.23265625 1.95359375 38.3828125 1.9296875 C52.44511669 1.73349052 67.23251006 1.8029469 81 5 C81 5.66 81 6.32 81 7 C81.73605469 7.06058594 82.47210937 7.12117187 83.23046875 7.18359375 C84.20628906 7.26738281 85.18210937 7.35117188 86.1875 7.4375 C87.15042969 7.51871094 88.11335938 7.59992188 89.10546875 7.68359375 C91.78649602 7.97666151 94.3662986 8.42703754 97 9 C97 9.66 97 10.32 97 11 C97.85851562 10.9690625 98.71703125 10.938125 99.6015625 10.90625 C103.09390872 11.00259059 106.00616185 11.60164316 109.375 12.5 C110.43460938 12.7784375 111.49421875 13.056875 112.5859375 13.34375 C113.38257813 13.5603125 114.17921875 13.776875 115 14 C115 14.66 115 15.32 115 16 C117.97 16.66 120.94 17.32 124 18 C124 18.66 124 19.32 124 20 C127.3 20.66 130.6 21.32 134 22 C134 22.66 134 23.32 134 24 C135.546875 24.185625 135.546875 24.185625 137.125 24.375 C140.62116846 24.93889814 143.68397627 25.78682059 147 27 C147 27.66 147 28.32 147 29 C149.97 29.66 152.94 30.32 156 31 C156 31.99 156 32.98 156 34 C156.969375 34.12375 157.93875 34.2475 158.9375 34.375 C159.948125 34.58125 160.95875 34.7875 162 35 C162.33 35.66 162.66 36.32 163 37 C165.11327425 37.90725434 165.11327425 37.90725434 167.5625 38.625 C168.80193359 39.01558594 168.80193359 39.01558594 170.06640625 39.4140625 C170.70449219 39.60742188 171.34257813 39.80078125 172 40 C172 40.66 172 41.32 172 42 C172.763125 42.103125 173.52625 42.20625 174.3125 42.3125 C177.31242764 43.07992335 177.88239908 43.88239908 180 46 C183.10007201 47.20049407 183.10007201 47.20049407 186 48 C186 48.99 186 49.98 186 51 C187.65 51.33 189.3 51.66 191 52 C191.103125 52.639375 191.20625 53.27875 191.3125 53.9375 C191.539375 54.618125 191.76625 55.29875 192 56 C192.99 56.33 193.98 56.66 195 57 C195 57.66 195 58.32 195 59 C197.97 59.99 200.94 60.98 204 62 C204 62.66 204 63.32 204 64 C204.804375 64.268125 205.60875 64.53625 206.4375 64.8125 C207.283125 65.204375 208.12875 65.59625 209 66 C209.33 66.99 209.66 67.98 210 69 C211.62053812 70.38903267 213.29705213 71.71332828 215 73 C218.88724543 76.15838691 222.50504998 79.41307761 226 83 C226.7425 83.70125 227.485 84.4025 228.25 85.125 C231.65976825 88.77832312 231.20241863 92.83413136 231.16796875 97.546875 C230.97627568 100.34648535 230.32069572 102.52369553 229 105 C228.34 105 227.68 105 227 105 C226.566875 105.8971875 226.566875 105.8971875 226.125 106.8125 C225 109 225 109 223 112 C220.30486245 112.30451691 217.83711288 112.41124275 215.13839722 112.39199829 C214.31649371 112.39793955 213.49459021 112.40388081 212.64778054 112.41000211 C209.87686815 112.4263901 207.10640003 112.42133111 204.33544922 112.41650391 C202.35441064 112.42387965 200.37337663 112.43258331 198.39234924 112.44252014 C192.99224465 112.46593745 187.59225487 112.4709991 182.19210577 112.47317934 C176.52713011 112.47883719 170.86222924 112.5021189 165.19729614 112.52377319 C154.43471911 112.56238958 143.67216338 112.5865375 132.90953457 112.60489786 C113.71582207 112.63813446 94.52217627 112.69653803 75.32853901 112.75888956 C68.60569567 112.78017582 61.88287286 112.79544437 55.16000426 112.805848 C24.56633126 112.82056922 24.56633126 112.82056922 -6 114 C-6 114.66 -6 115.32 -6 116 C-8.39531756 116.33745354 -10.79114268 116.6700829 -13.1875 117 C-13.86103516 117.09539062 -14.53457031 117.19078125 -15.22851562 117.2890625 C-18.84664577 117.78324613 -22.34796401 118.11346131 -26 118 C-26 118.66 -26 119.32 -26 120 C-27.91512272 120.50588147 -29.83216922 121.00448391 -31.75 121.5 C-32.81734375 121.7784375 -33.8846875 122.056875 -34.984375 122.34375 C-38 123 -38 123 -42 123 C-42 123.66 -42 124.32 -42 125 C-45.3 125.66 -48.6 126.32 -52 127 C-52 127.66 -52 128.32 -52 129 C-55.37097383 130.49821059 -57.20442119 131 -61 131 C-61 131.66 -61 132.32 -61 133 C-67.625 136 -67.625 136 -71 136 C-71 136.66 -71 137.32 -71 138 C-74.465 138.99 -74.465 138.99 -78 140 C-78 140.66 -78 141.32 -78 142 C-80.97 142.99 -80.97 142.99 -84 144 C-84 144.66 -84 145.32 -84 146 C-84.969375 146.45375 -85.93875 146.9075 -86.9375 147.375 C-90.07079582 148.65786221 -90.07079582 148.65786221 -91 151 C-92.33333333 151.66666667 -93.66666667 152.33333333 -95 153 C-95.33 153.66 -95.66 154.32 -96 155 C-98 156 -100 157 -102 158 C-103.54166642 159.37485532 -103.54166642 159.37485532 -105 161 C-106.47979915 162.22244278 -107.95992827 163.44450598 -109.4453125 164.66015625 C-110.95552817 165.96167377 -112.3561938 167.38701639 -113.75 168.8125 C-116 171 -116 171 -118 171 C-118.66 172.32 -119.32 173.64 -120 175 C-120.66 175 -121.32 175 -122 175 C-122.3403125 176.3303125 -122.3403125 176.3303125 -122.6875 177.6875 C-124.20455384 181.51625492 -125.96779818 183.24986347 -129 186 C-131.65034189 188.52413514 -133.80146182 190.66910303 -135.6875 193.8125 C-136.120625 194.534375 -136.55375 195.25625 -137 196 C-137.66 196 -138.32 196 -139 196 C-139.103125 196.5775 -139.20625 197.155 -139.3125 197.75 C-140.10896465 200.35661158 -141.19065277 201.9735311 -143 204 C-143.66 204 -144.32 204 -145 204 C-145.99 206.97 -146.98 209.94 -148 213 C-148.99 213 -149.98 213 -151 213 C-151.103125 213.680625 -151.20625 214.36125 -151.3125 215.0625 C-152.15693671 218.67054778 -153.39239001 221.65617122 -155 225 C-155.66 225.33 -156.32 225.66 -157 226 C-157.90725434 228.11327425 -157.90725434 228.11327425 -158.625 230.5625 C-159.01558594 231.80193359 -159.01558594 231.80193359 -159.4140625 233.06640625 C-159.70410156 234.02353516 -159.70410156 234.02353516 -160 235 C-160.66 235 -161.32 235 -162 235 C-162.185625 235.99 -162.185625 235.99 -162.375 237 C-163.14520538 240.69698583 -164.06950663 244.34005942 -165 248 C-165.99 248 -166.98 248 -168 248 C-168.13277344 248.82757813 -168.26554687 249.65515625 -168.40234375 250.5078125 C-169.05334389 254.3116957 -169.79658173 258.09304952 -170.5625 261.875 C-170.70107422 262.56335938 -170.83964844 263.25171875 -170.98242188 263.9609375 C-171.32072827 265.64080374 -171.66023912 267.32042734 -172 269 C-172.66 269 -173.32 269 -174 269 C-174.04898438 269.6290625 -174.09796875 270.258125 -174.1484375 270.90625 C-174.63435199 276.46913314 -175.50553626 281.61993052 -177 287 C-177.66 287 -178.32 287 -179 287 C-179.04898438 287.8559375 -179.09796875 288.711875 -179.1484375 289.59375 C-179.3656681 293.33910519 -179.58760354 297.08414179 -179.81152344 300.82910156 C-179.95156516 303.18514033 -180.08998177 305.54127581 -180.22753906 307.89746094 C-180.43750308 311.49348055 -180.65207097 315.08920607 -180.86895752 318.68481445 C-180.95629458 320.14452717 -181.04219229 321.60432672 -181.12664795 323.06420898 C-181.24727952 325.14461693 -181.37307793 327.2246551 -181.5 329.3046875 C-181.60828125 331.1297583 -181.60828125 331.1297583 -181.71875 332.99169922 C-182 336 -182 336 -183 339 C-183.66 339 -184.32 339 -185 339 C-185.28875 339.763125 -185.5775 340.52625 -185.875 341.3125 C-187 344 -187 344 -189 347 C-192.68283651 348.22761217 -196.07770096 348.13959911 -199.91210938 348.12939453 C-201.11985771 348.13202301 -201.11985771 348.13202301 -202.352005 348.13470459 C-205.01594187 348.13910913 -207.67981245 348.13619001 -210.34375 348.1328125 C-212.19315605 348.13348594 -214.04256202 348.1344563 -215.89196777 348.13571167 C-219.76897016 348.13718675 -223.64594951 348.13504017 -227.52294922 348.13037109 C-232.49647607 348.12467392 -237.46994895 348.12795394 -242.44347382 348.13394356 C-246.26267912 348.13755428 -250.08187159 348.13640822 -253.90107727 348.13381577 C-255.73513292 348.13314791 -257.56918972 348.13396998 -259.40324402 348.13629532 C-261.96482434 348.13883019 -264.52631685 348.1349694 -267.08789062 348.12939453 C-267.84850296 348.13141876 -268.6091153 348.13344299 -269.39277649 348.13552856 C-272.53382852 348.12284211 -274.99677426 348.00107525 -278 347 C-278 346.34 -278 345.68 -278 345 C-279.175625 344.6596875 -279.175625 344.6596875 -280.375 344.3125 C-283 343 -283 343 -284.14526367 340.82714844 C-285.86118897 335.15150863 -285.34071262 329.13391651 -285.3125 323.25 C-285.31167419 322.532677 -285.31084839 321.815354 -285.30999756 321.07629395 C-285.27982449 309.58575284 -284.6676527 298.19139063 -283.625 286.75 C-283.56196686 286.04008911 -283.49893372 285.33017822 -283.43399048 284.59875488 C-282.32557621 272.39821099 -282.32557621 272.39821099 -280 267 C-279.4569441 264.55081788 -278.96020398 262.09109308 -278.5 259.625 C-277.5679057 254.65045323 -276.43111713 249.8538269 -275 245 C-274.35016308 242.54272194 -273.7044087 240.08436103 -273.0625 237.625 C-271.76977527 232.7239446 -270.37847579 227.88901113 -268.7109375 223.1015625 C-267.92322014 220.77303535 -267.24260861 218.42459763 -266.5625 216.0625 C-265.0345493 210.89963501 -263.06256012 205.96851528 -261 201 C-260.70222656 200.22269531 -260.40445313 199.44539062 -260.09765625 198.64453125 C-258.46638607 194.71438921 -256.50029309 190.95873291 -254.56640625 187.171875 C-252.07041561 182.24416815 -250.00629752 177.6015667 -248.875 172.1875 C-248.70742187 171.39730469 -248.53984375 170.60710937 -248.3671875 169.79296875 C-248.18542969 168.90544922 -248.18542969 168.90544922 -248 168 C-247.34 168 -246.68 168 -246 168 C-245.855625 167.401875 -245.71125 166.80375 -245.5625 166.1875 C-245.1127561 164.43849596 -244.57107659 162.71322977 -244 161 C-243.34 161 -242.68 161 -242 161 C-242 159.68 -242 158.36 -242 157 C-241.34 156.67 -240.68 156.34 -240 156 C-238.94647157 153.69034152 -237.94280904 151.3570226 -237 149 C-236.34 149 -235.68 149 -235 149 C-234.566875 147.63875 -234.566875 147.63875 -234.125 146.25 C-231.74418605 139.37209302 -231.74418605 139.37209302 -229 138 C-227.87775145 136.11986894 -227.87775145 136.11986894 -226.875 133.9375 C-226.52179688 133.20402344 -226.16859375 132.47054687 -225.8046875 131.71484375 C-225.53914063 131.14894531 -225.27359375 130.58304688 -225 130 C-224.01 130 -223.02 130 -222 130 C-221.87625 129.4225 -221.7525 128.845 -221.625 128.25 C-220.48642135 124.15111687 -219.01753536 121.75782701 -215.625 119.1875 C-213.09297936 117.11584675 -211.40864681 115.32880135 -209.875 112.4375 C-207.41226949 107.92249406 -204.9579807 104.65266023 -200 103 C-199.26676204 100.98491642 -199.26676204 100.98491642 -199 99 C-198.34 99 -197.68 99 -197 99 C-197 98.01 -197 97.02 -197 96 C-196.41347656 95.75378906 -195.82695312 95.50757813 -195.22265625 95.25390625 C-192.65694503 93.80646635 -191.28738962 92.21778899 -189.4375 89.9375 C-186.32975207 86.10991736 -186.32975207 86.10991736 -183 85 C-181.83333333 83.08333333 -181.83333333 83.08333333 -181 81 C-179.73577236 78.47154472 -178.47154472 78.23577236 -176 77 C-175.67 76.34 -175.34 75.68 -175 75 C-173.33333333 74 -171.66666667 73 -170 72 C-169.67 71.34 -169.34 70.68 -169 70 C-168.38125 69.71125 -167.7625 69.4225 -167.125 69.125 C-164.84887698 68.11716942 -164.84887698 68.11716942 -163.4375 65.875 C-162.963125 65.25625 -162.48875 64.6375 -162 64 C-161.01 64 -160.02 64 -159 64 C-158.67 63.01 -158.34 62.02 -158 61 C-154.9375 59.8125 -154.9375 59.8125 -152 59 C-152 58.34 -152 57.68 -152 57 C-151.38125 56.731875 -150.7625 56.46375 -150.125 56.1875 C-147.7004767 55.04443152 -147.7004767 55.04443152 -146 52 C-144.34183216 51.31246699 -142.67540664 50.64438717 -141 50 C-140.67 49.34 -140.34 48.68 -140 48 C-137.09740189 46.6250851 -135.23861295 46 -132 46 C-131.67 45.01 -131.34 44.02 -131 43 C-128.525 42.505 -128.525 42.505 -126 42 C-125.67 41.01 -125.34 40.02 -125 39 C-123.00882592 38.30741771 -121.0078864 37.64252365 -119 37 C-118.484375 36.484375 -117.96875 35.96875 -117.4375 35.4375 C-115.48009342 33.48009342 -113.68603421 33.3629776 -111 33 C-111 32.34 -111 31.68 -111 31 C-107.62902617 29.50178941 -105.79557881 29 -102 29 C-102 28.34 -102 27.68 -102 27 C-100.73160474 26.49384702 -99.46016898 25.99530901 -98.1875 25.5 C-97.12595703 25.08234375 -97.12595703 25.08234375 -96.04296875 24.65625 C-94 24 -94 24 -91 24 C-91 23.34 -91 22.68 -91 22 C-87.17679443 20.57741188 -84.08718695 19.75957724 -80 20 C-80 19.34 -80 18.68 -80 18 C-76.12315913 16.80712589 -73.08378077 16 -69 16 C-69 15.34 -69 14.68 -69 14 C-66.93918639 13.49309416 -64.87626474 12.99475381 -62.8125 12.5 C-61.66394531 12.2215625 -60.51539063 11.943125 -59.33203125 11.65625 C-56.43181171 11.08504615 -53.93903615 10.86716221 -51 11 C-51 10.34 -51 9.68 -51 9 C-45.77487721 7.53329887 -41.4185766 6.77422598 -36 7 C-36 6.34 -36 5.68 -36 5 C-32.06387423 4.48877952 -28.12592893 3.99313662 -24.1875 3.5 C-23.08728516 3.35691406 -21.98707031 3.21382812 -20.85351562 3.06640625 C-13.86029143 2.19998909 -7.04522881 1.80875086 0 2 C0 1.34 0 0.68 0 0 Z " fill="#C2A661" transform="translate(440,136)"/>
<path d="M0 0 C27.72 0 55.44 0 84 0 C84 0.66 84 1.32 84 2 C84.928125 2.185625 85.85625 2.37125 86.8125 2.5625 C90.46147381 4.20811564 91.00171184 5.43731957 92.41531372 9.06695557 C93.31328543 12.03576 93.4077921 14.80522456 93.43359375 17.8984375 C93.4402858 18.55487747 93.44697784 19.21131744 93.45387268 19.88764954 C93.46721243 22.05053222 93.45434233 24.21215436 93.4375 26.375 C93.43592896 27.49269272 93.43592896 27.49269272 93.43432617 28.63296509 C93.37846198 48.19034766 91.22149534 67.58997987 89 87 C88.34 87 87.68 87 87 87 C85.68 95.25 84.36 103.5 83 112 C82.34 112 81.68 112 81 112 C80.86722656 112.68707031 80.73445313 113.37414062 80.59765625 114.08203125 C80.42105469 114.98308594 80.24445313 115.88414062 80.0625 116.8125 C79.88847656 117.70582031 79.71445312 118.59914063 79.53515625 119.51953125 C79 122 79 122 78 125 C77.34 125 76.68 125 76 125 C75.896875 126.11375 75.79375 127.2275 75.6875 128.375 C75.070803 133.43554302 73.57493852 138.16622643 72 143 C71.34 143 70.68 143 70 143 C69.96261719 143.68964844 69.92523437 144.37929688 69.88671875 145.08984375 C69.00278975 157.72482881 69.00278975 157.72482881 66 163 C64.68487639 163.70190605 63.351541 164.37106508 62 165 C60.71745356 167.53770003 60.71745356 167.53770003 60 170 C59.34 170 58.68 170 58 170 C57.87625 170.804375 57.7525 171.60875 57.625 172.4375 C57.315625 174.2009375 57.315625 174.2009375 57 176 C56.8659375 176.76957031 56.731875 177.53914062 56.59375 178.33203125 C56.4390625 179.12996094 56.284375 179.92789063 56.125 180.75 C55.91230469 181.88695312 55.91230469 181.88695312 55.6953125 183.046875 C55 185 55 185 52 187 C50.92863949 189.30144109 49.92010283 191.6340213 49 194 C48.34 194 47.68 194 47 194 C46.72736328 194.93972656 46.72736328 194.93972656 46.44921875 195.8984375 C46.19785156 196.71570313 45.94648437 197.53296875 45.6875 198.375 C45.44386719 199.18710937 45.20023438 199.99921875 44.94921875 200.8359375 C44 203 44 203 41 205 C39.8566743 206.91595089 39.8566743 206.91595089 38.9375 209.0625 C37.21236873 212.89381564 37.21236873 212.89381564 35 214 C33.95191959 215.97522846 32.9479589 217.97481509 32 220 C31.34 220 30.68 220 30 220 C29.62875 221.175625 29.62875 221.175625 29.25 222.375 C27.79075497 225.43941457 26.94985044 225.61725761 24 227 C22.81669817 228.86644906 22.81669817 228.86644906 22 231 C21.33333333 232.33333333 20.66666667 233.66666667 20 235 C19.34 235 18.68 235 18 235 C17.731875 235.639375 17.46375 236.27875 17.1875 236.9375 C16 239 16 239 13 240 C12.29155765 241.31161414 11.6309257 242.64938718 11 244 C9.89828029 245.43090825 8.74970573 246.82668139 7.5625 248.1875 C6.96566406 248.88230469 6.36882812 249.57710937 5.75390625 250.29296875 C4 252 4 252 1 253 C0.31513275 254.32407669 -0.34870203 255.65909241 -1 257 C-3.19386219 259.42891885 -5.52286627 261.42682961 -8.0625 263.5 C-10.98438726 265.7899153 -10.98438726 265.7899153 -12.6875 268.3125 C-13.120625 268.869375 -13.55375 269.42625 -14 270 C-14.99 270 -15.98 270 -17 270 C-17.2475 270.639375 -17.495 271.27875 -17.75 271.9375 C-19.32987939 274.544301 -20.16780311 274.29195078 -23 275 C-24.28436734 276.9837767 -24.28436734 276.9837767 -25 279 C-25.99 279 -26.98 279 -28 279 C-28.66 280.32 -29.32 281.64 -30 283 C-30.99 283 -31.98 283 -33 283 C-33.33 283.99 -33.66 284.98 -34 286 C-37 288 -37 288 -40 288 C-40.66 289.32 -41.32 290.64 -42 292 C-42.99 292 -43.98 292 -45 292 C-45 292.66 -45 293.32 -45 294 C-48 296 -48 296 -51 296 C-51.33 296.99 -51.66 297.98 -52 299 C-54.33333333 299.66666667 -56.66666667 300.33333333 -59 301 C-59.33 301.99 -59.66 302.98 -60 304 C-61.65 304.33 -63.3 304.66 -65 305 C-65 305.66 -65 306.32 -65 307 C-66.06541016 307.27263672 -66.06541016 307.27263672 -67.15234375 307.55078125 C-68.07144531 307.80214844 -68.99054688 308.05351563 -69.9375 308.3125 C-70.85402344 308.55613281 -71.77054688 308.79976562 -72.71484375 309.05078125 C-73.46894531 309.36402344 -74.22304688 309.67726563 -75 310 C-75.33 310.99 -75.66 311.98 -76 313 C-77.98 313.33 -79.96 313.66 -82 314 C-82 314.66 -82 315.32 -82 316 C-84.90600261 317.25664978 -86.79604584 318 -90 318 C-90 318.66 -90 319.32 -90 320 C-90.63808594 320.19335938 -91.27617188 320.38671875 -91.93359375 320.5859375 C-92.75988281 320.84632813 -93.58617187 321.10671875 -94.4375 321.375 C-95.67306641 321.75785156 -95.67306641 321.75785156 -96.93359375 322.1484375 C-99.17798016 322.80882227 -99.17798016 322.80882227 -100 325 C-102.50390625 325.6328125 -102.50390625 325.6328125 -105.5625 326.125 C-106.57441406 326.29257812 -107.58632813 326.46015625 -108.62890625 326.6328125 C-109.41136719 326.75398438 -110.19382812 326.87515625 -111 327 C-111 327.66 -111 328.32 -111 329 C-114.61973402 330.31626692 -117.09567131 331 -121 331 C-121 331.66 -121 332.32 -121 333 C-122.89385437 333.50744423 -124.79018666 334.00564574 -126.6875 334.5 C-127.74324219 334.7784375 -128.79898437 335.056875 -129.88671875 335.34375 C-132.71142672 335.9391715 -135.12836708 336.12786492 -138 336 C-138 336.66 -138 337.32 -138 338 C-146.42857143 340.28571429 -146.42857143 340.28571429 -151 340 C-151 340.66 -151 341.32 -151 342 C-153.52019972 342.33885038 -156.04098516 342.67120335 -158.5625 343 C-159.61920898 343.14308594 -159.61920898 343.14308594 -160.69726562 343.2890625 C-165.17367855 343.86666417 -169.48661238 344.09489383 -174 344 C-174 344.66 -174 345.32 -174 346 C-202.65237002 349.83859503 -233.34762998 349.83859503 -262 346 C-262 345.34 -262 344.68 -262 344 C-263.60875 344.061875 -263.60875 344.061875 -265.25 344.125 C-270.93103623 344.14543538 -276.43295193 343.03918231 -282 342 C-282 341.34 -282 340.68 -282 340 C-282.75925781 339.93941406 -283.51851562 339.87882812 -284.30078125 339.81640625 C-285.29464844 339.73261719 -286.28851563 339.64882813 -287.3125 339.5625 C-288.29863281 339.48128906 -289.28476562 339.40007812 -290.30078125 339.31640625 C-293 339 -293 339 -296 338 C-296 337.34 -296 336.68 -296 336 C-297.299375 335.87625 -298.59875 335.7525 -299.9375 335.625 C-304.71849952 335.10136672 -309.33114101 334.13686165 -314 333 C-314 332.34 -314 331.68 -314 331 C-316.97 330.34 -319.94 329.68 -323 329 C-323 328.34 -323 327.68 -323 327 C-323.7425 326.855625 -324.485 326.71125 -325.25 326.5625 C-327.52027739 326.09812508 -329.75759479 325.58136431 -332 325 C-332 324.34 -332 323.68 -332 323 C-332.86625 322.87625 -333.7325 322.7525 -334.625 322.625 C-337.91721082 322.01533133 -340.88730484 321.23060041 -344 320 C-344.33 319.34 -344.66 318.68 -345 318 C-346.64363134 317.27840576 -348.31050386 316.60648579 -350 316 C-350 315.34 -350 314.68 -350 314 C-350.928125 313.855625 -351.85625 313.71125 -352.8125 313.5625 C-356 313 -356 313 -359 312 C-359 311.34 -359 310.68 -359 310 C-360.423125 309.5359375 -360.423125 309.5359375 -361.875 309.0625 C-365 308 -365 308 -367 307 C-367 306.34 -367 305.68 -367 305 C-368.98 304.34 -370.96 303.68 -373 303 C-373 302.01 -373 301.02 -373 300 C-374.98 299.67 -376.96 299.34 -379 299 C-379.495 297.515 -379.495 297.515 -380 296 C-382.00016466 294.79117904 -382.00016466 294.79117904 -384 294 C-384 293.34 -384 292.68 -384 292 C-386.31 291.34 -388.62 290.68 -391 290 C-391 289.34 -391 288.68 -391 288 C-391.61875 287.9175 -392.2375 287.835 -392.875 287.75 C-395.67505419 286.76174558 -395.74113932 285.59640015 -397 283 C-398.31647119 282.30062468 -399.65022151 281.63270867 -401 281 C-401.99 279.515 -401.99 279.515 -403 278 C-403.99 277.67 -404.98 277.34 -406 277 C-407 275.66666667 -408 274.33333333 -409 273 C-409.99 272.67 -410.98 272.34 -412 272 C-414.1875 270.0625 -414.1875 270.0625 -416 268 C-416 267.34 -416 266.68 -416 266 C-416.99 265.67 -417.98 265.34 -419 265 C-419.33 263.35 -419.66 261.7 -420 260 C-420.66 260 -421.32 260 -422 260 C-423.40409792 255.61219399 -423.968177 251.23264955 -422.09375 246.91015625 C-419.39694173 242.26853432 -416.75828959 239.66571967 -412 237 C-409.10716803 236.62980407 -406.6069832 236.47459286 -403.72366333 236.51898193 C-402.90590986 236.51556423 -402.08815639 236.51214653 -401.24562252 236.50862527 C-398.51381145 236.50205259 -395.78298961 236.52401191 -393.05126953 236.54589844 C-391.08981855 236.54702705 -389.12836589 236.54639279 -387.16691589 236.54412842 C-381.84704469 236.54298088 -376.52753433 236.56649684 -371.20774698 236.59442425 C-365.64640031 236.61943115 -360.08504534 236.62177935 -354.52365112 236.62652588 C-343.99460409 236.63895771 -333.46572321 236.67178226 -322.93674934 236.71192384 C-310.94895363 236.75663497 -298.96114997 236.77862696 -286.97329164 236.79870558 C-262.31543565 236.8405146 -237.65772713 236.91087083 -213 237 C-213 236.34 -213 235.68 -213 235 C-211.72125 234.93941406 -210.4425 234.87882813 -209.125 234.81640625 C-207.4166589 234.73192784 -205.70832599 234.64728359 -204 234.5625 C-203.16082031 234.52318359 -202.32164062 234.48386719 -201.45703125 234.44335938 C-197.50975093 234.24446541 -193.60671768 233.98765958 -189.6875 233.46875 C-186.72769861 233.09250406 -183.97325531 232.89104289 -181 232.9375 C-180.236875 232.94652344 -179.47375 232.95554687 -178.6875 232.96484375 C-177.8521875 232.98224609 -177.8521875 232.98224609 -177 233 C-177 232.34 -177 231.68 -177 231 C-175.43883181 230.66048381 -173.87598662 230.32867456 -172.3125 230 C-171.44238281 229.814375 -170.57226562 229.62875 -169.67578125 229.4375 C-167.06287036 229.01027953 -164.64186962 228.92383799 -162 229 C-162 228.34 -162 227.68 -162 227 C-160.10614563 226.49255577 -158.20981334 225.99435426 -156.3125 225.5 C-155.25675781 225.2215625 -154.20101563 224.943125 -153.11328125 224.65625 C-150.28857328 224.0608285 -147.87163292 223.87213508 -145 224 C-145 223.34 -145 222.68 -145 222 C-142.03 221.34 -139.06 220.68 -136 220 C-136 219.34 -136 218.68 -136 218 C-132.62902617 216.50178941 -130.79557881 216 -127 216 C-126.67 215.01 -126.34 214.02 -126 213 C-122.4375 211.8125 -122.4375 211.8125 -119 211 C-119 210.34 -119 209.68 -119 209 C-117.7934375 208.566875 -117.7934375 208.566875 -116.5625 208.125 C-113.8673532 207.26737432 -113.8673532 207.26737432 -113 205 C-111.03700146 204.15934368 -109.03929129 203.53482652 -107.0078125 202.87890625 C-104.78903847 201.90765302 -103.67534963 200.71654675 -102 199 C-101.01 198.67 -100.02 198.34 -99 198 C-98.505 197.319375 -98.01 196.63875 -97.5 195.9375 C-96.7575 194.9784375 -96.7575 194.9784375 -96 194 C-95.01 194 -94.02 194 -93 194 C-92.67 193.01 -92.34 192.02 -92 191 C-90.6846659 190.29848848 -89.34882408 189.63474075 -88 189 C-86.49985609 187.66710346 -86.49985609 187.66710346 -85 186 C-83.33333333 184.33333333 -81.66666667 182.66666667 -80 181 C-79.360625 180.34 -78.72125 179.68 -78.0625 179 C-76 177 -76 177 -72.9375 174.5 C-70.48814564 172.4154431 -68.88477682 170.5444487 -67 168 C-66.34 168 -65.68 168 -65 168 C-64.7525 167.2575 -64.505 166.515 -64.25 165.75 C-62.88861048 162.75494305 -61.3426579 161.27166827 -59 159 C-58.46375 158.0925 -57.9275 157.185 -57.375 156.25 C-56.694375 155.13625 -56.694375 155.13625 -56 154 C-55.34 154 -54.68 154 -54 154 C-53.71125 153.0925 -53.4225 152.185 -53.125 151.25 C-51.40386704 146.27783813 -50.21471859 144.12704927 -46 141 C-45.67 140.01 -45.34 139.02 -45 138 C-44.34 137.67 -43.68 137.34 -43 137 C-42.09656316 135.11736119 -42.09656316 135.11736119 -41.375 132.9375 C-41.11460937 132.20402344 -40.85421875 131.47054687 -40.5859375 130.71484375 C-40.39257812 130.14894531 -40.19921875 129.58304688 -40 129 C-39.01 129 -38.02 129 -37 129 C-36.87625 127.88625 -36.7525 126.7725 -36.625 125.625 C-36 122 -36 122 -34 120 C-33.35232207 117.42938689 -33.35232207 117.42938689 -33 115 C-32.34 115 -31.68 115 -31 115 C-30.896875 114.154375 -30.79375 113.30875 -30.6875 112.4375 C-29.9171146 108.58557299 -28.63725486 105.55924969 -27 102 C-26.34 102 -25.68 102 -25 102 C-23.515 94.575 -23.515 94.575 -22 87 C-21.34 87 -20.68 87 -20 87 C-19.86722656 86.16210938 -19.73445313 85.32421875 -19.59765625 84.4609375 C-18.96973478 80.82473864 -18.21992814 77.23097315 -17.4375 73.625 C-17.16808594 72.37976563 -16.89867187 71.13453125 -16.62109375 69.8515625 C-16.31365234 68.44003906 -16.31365234 68.44003906 -16 67 C-15.34 67 -14.68 67 -14 67 C-13.94593994 66.01136963 -13.89187988 65.02273926 -13.83618164 64.00415039 C-13.1899112 52.46910627 -12.34097398 40.95491328 -11.4375 29.4375 C-11.29738046 27.63607903 -11.15740579 25.83464678 -11.01757812 24.03320312 C-10.68004734 19.68867092 -10.34058443 15.34429384 -10 11 C-9.34 11 -8.68 11 -8 11 C-7.938125 10.443125 -7.87625 9.88625 -7.8125 9.3125 C-6.6519231 6.00931958 -4.59786554 4.28105267 -2 2 C-1.34 2 -0.68 2 0 2 C0 1.34 0 0.68 0 0 Z " fill="#C2A561" transform="translate(677,451)"/>
<path d="M0 0 C27.06 0 54.12 0 82 0 C82 0.66 82 1.32 82 2 C82.9075 2.2475 83.815 2.495 84.75 2.75 C88.15021739 4.05777592 89.71669612 5.20929526 92 8 C92.94929585 10.84788756 93.12870275 12.6249783 93.1328125 15.578125 C93.13474609 16.48546387 93.13667969 17.39280273 93.13867188 18.32763672 C93.13416016 19.2920166 93.12964844 20.25639648 93.125 21.25 C93.12306641 22.2311377 93.12113281 23.21227539 93.11914062 24.22314453 C93.07231009 32.1830344 92.69166285 40.07057945 92 48 C91.34 48 90.68 48 90 48 C89.87882812 48.76183594 89.75765625 49.52367187 89.6328125 50.30859375 C88.61250208 56.59527564 87.44720271 62.79770268 86 69 C85.34 69 84.68 69 84 69 C83.95101563 69.56847656 83.90203125 70.13695312 83.8515625 70.72265625 C83.36856919 75.71081129 82.52361837 80.22599578 81 85 C80.34 85 79.68 85 79 85 C77.19003784 90.65755469 75.64270983 96.0870696 75 102 C74.34 102 73.68 102 73 102 C72.72736328 102.95712891 72.72736328 102.95712891 72.44921875 103.93359375 C72.19785156 104.75988281 71.94648437 105.58617187 71.6875 106.4375 C71.44386719 107.26121094 71.20023438 108.08492187 70.94921875 108.93359375 C70.47935547 109.95646484 70.47935547 109.95646484 70 111 C68.515 111.495 68.515 111.495 67 112 C66.62243192 113.32148827 66.2981424 114.65835921 66 116 C64.5625 118.75 64.5625 118.75 63 121 C62.34 121 61.68 121 61 121 C60.87625 121.598125 60.7525 122.19625 60.625 122.8125 C60 125 60 125 58 128 C57.34 128 56.68 128 56 128 C55.34 129.65 54.68 131.3 54 133 C53.34 133 52.68 133 52 133 C52 133.66 52 134.32 52 135 C51.34 135 50.68 135 50 135 C49.690625 135.61875 49.38125 136.2375 49.0625 136.875 C48.375 138.25 47.6875 139.625 47 141 C46.01 141.33 45.02 141.66 44 142 C42.65729179 143.99371825 41.32346506 145.9934562 40 148 C39.34 148 38.68 148 38 148 C38 148.66 38 149.32 38 150 C37.21625 150.2475 36.4325 150.495 35.625 150.75 C32.67682892 152.15389099 32.0975223 153.00675737 31 156 C29.35 156 27.7 156 26 156 C25.67 157.32 25.34 158.64 25 160 C23.68 160.33 22.36 160.66 21 161 C21 161.66 21 162.32 21 163 C15.25 166 15.25 166 13 166 C13 166.66 13 167.32 13 168 C11.02 168.66 9.04 169.32 7 170 C7 170.66 7 171.32 7 172 C3.535 172.99 3.535 172.99 0 174 C0 174.66 0 175.32 0 176 C-8.42857143 179.42857143 -8.42857143 179.42857143 -13 179 C-13 179.66 -13 180.32 -13 181 C-17.1196377 182.29243536 -20.66831683 183.26252625 -25 183 C-25 183.66 -25 184.32 -25 185 C-30.22512279 186.46670113 -34.5814234 187.22577402 -40 187 C-40 187.66 -40 188.32 -40 189 C-54.94557328 192.29011769 -71.03010131 191.1487252 -86.22509766 191.14526367 C-88.85955948 191.14826002 -91.49401847 191.15163592 -94.128479 191.15544128 C-100.50692654 191.16369116 -106.88536483 191.1664934 -113.26381727 191.16705366 C-118.44696079 191.16753084 -123.6301013 191.16959557 -128.81324387 191.17275429 C-143.52975246 191.18153973 -158.24625381 191.18617613 -172.96276505 191.18542381 C-173.7534852 191.18538386 -174.54420535 191.1853439 -175.35888672 191.18530273 C-176.54642274 191.18524141 -176.54642274 191.18524141 -177.7579494 191.18517885 C-190.62201811 191.18477136 -203.48605771 191.1943723 -216.350118 191.2084411 C-229.57967427 191.22279511 -242.80921631 191.22971206 -256.03878057 191.22884732 C-263.45830672 191.22851537 -270.8778022 191.23126279 -278.29732132 191.24202538 C-285.2626603 191.25206551 -292.22793332 191.25180535 -299.19327545 191.24450874 C-301.75192993 191.2434598 -304.3105884 191.24584401 -306.86923599 191.2518692 C-310.35468399 191.25954733 -313.83990505 191.25497224 -317.3253479 191.24723816 C-318.34332604 191.25238172 -319.36130418 191.25752529 -320.41013014 191.26282471 C-329.22974317 191.21941086 -329.22974317 191.21941086 -333 189 C-334.36328125 186.6875 -334.36328125 186.6875 -335.3125 184 C-335.80169922 182.6696875 -335.80169922 182.6696875 -336.30078125 181.3125 C-337 179 -337 179 -337 177 C-337.66 177 -338.32 177 -339 177 C-339.25394531 176.24074219 -339.50789063 175.48148438 -339.76953125 174.69921875 C-340.11371094 173.70535156 -340.45789063 172.71148438 -340.8125 171.6875 C-341.14894531 170.70136719 -341.48539063 169.71523438 -341.83203125 168.69921875 C-342.79964507 166.00861017 -342.79964507 166.00861017 -344.5625 164.4375 C-346.47173715 162.52826285 -346.69263677 160.93908176 -347.1875 158.3125 C-347.34605469 157.50425781 -347.50460937 156.69601562 -347.66796875 155.86328125 C-347.77753906 155.24839844 -347.88710938 154.63351562 -348 154 C-348.66 154 -349.32 154 -350 154 C-350.67220351 152.06441401 -351.33758077 150.12645628 -352 148.1875 C-352.37125 147.10855469 -352.7425 146.02960938 -353.125 144.91796875 C-354 142 -354 142 -354 139 C-354.66 139 -355.32 139 -356 139 C-356.67155349 136.73050898 -357.3373963 134.4596039 -358 132.1875 C-358.37125 130.92292969 -358.7425 129.65835938 -359.125 128.35546875 C-360 125 -360 125 -360 122 C-360.66 122 -361.32 122 -362 122 C-362.67161995 118.89688362 -363.33643675 115.79234832 -364 112.6875 C-364.28617188 111.36588867 -364.28617188 111.36588867 -364.578125 110.01757812 C-364.75859375 109.17001953 -364.9390625 108.32246094 -365.125 107.44921875 C-365.29257812 106.66893311 -365.46015625 105.88864746 -365.6328125 105.0847168 C-366 103 -366 103 -366 100 C-366.66 100 -367.32 100 -368 100 C-368.5896175 94.25122939 -366.85437461 89.88788333 -364 85 C-359.11038838 79.97823671 -353.48592569 77.86619775 -346.6063261 77.61803246 C-344.45098178 77.59944284 -342.29545811 77.59725394 -340.14006042 77.60800171 C-338.94873782 77.60206045 -337.75741521 77.59611919 -336.52999192 77.58999789 C-333.23568695 77.57653691 -329.94187321 77.57639478 -326.64757812 77.58191919 C-323.08984522 77.58460574 -319.53217806 77.57000004 -315.97447205 77.55747986 C-309.81241497 77.53810871 -303.65041906 77.52951876 -297.48833275 77.52817917 C-288.56816897 77.52613722 -279.64810868 77.50665531 -270.7279797 77.48278125 C-256.24045764 77.44438763 -241.7529426 77.41857354 -227.26538086 77.40136719 C-213.21882127 77.38464444 -199.17227712 77.36446909 -185.12573242 77.33789062 C-183.828668 77.33544049 -183.828668 77.33544049 -182.50540026 77.33294086 C-173.05873107 77.31496175 -163.61206545 77.29560037 -154.16540241 77.27463722 C-153.33432656 77.2727958 -152.50325072 77.27095438 -151.64699075 77.26905716 C-148.32391981 77.26167651 -145.00084892 77.25428232 -141.6777784 77.24671336 C-131.96179465 77.22461976 -122.24582556 77.20679726 -112.52982149 77.19676055 C-106.43215539 77.19036273 -100.33449998 77.18080202 -94.23684236 77.16879199 C-90.72171387 77.16203161 -87.20660261 77.15693435 -83.69146729 77.15620613 C-79.87458586 77.15462957 -76.05776059 77.14703471 -72.2408905 77.13803101 C-70.58751003 77.13963338 -70.58751003 77.13963338 -68.90072793 77.14126813 C-62.54120686 77.11894984 -56.31390948 76.76858762 -50 76 C-50 75.34 -50 74.68 -50 74 C-47.36 73.34 -44.72 72.68 -42 72 C-42 71.34 -42 70.68 -42 70 C-36.375 67 -36.375 67 -33 67 C-32.7421875 66.42636719 -32.484375 65.85273437 -32.21875 65.26171875 C-30.8894836 62.79490707 -29.35595983 60.90831904 -27.5 58.8125 C-26.8915625 58.11769531 -26.283125 57.42289062 -25.65625 56.70703125 C-24 55 -24 55 -22 54 C-21.09656316 52.11736119 -21.09656316 52.11736119 -20.375 49.9375 C-19.98441406 48.83728516 -19.98441406 48.83728516 -19.5859375 47.71484375 C-19.39257812 47.14894531 -19.19921875 46.58304687 -19 46 C-18.34 46 -17.68 46 -17 46 C-16.87882812 45.43152344 -16.75765625 44.86304688 -16.6328125 44.27734375 C-15.58677946 39.45754536 -14.40795516 34.7267066 -13 30 C-12.34 30 -11.68 30 -11 30 C-11.02320313 29.42894531 -11.04640625 28.85789062 -11.0703125 28.26953125 C-11.46153846 10.69230769 -11.46153846 10.69230769 -7 4 C-4.36034793 2.38214873 -3.15987325 2 0 2 C0 1.34 0 0.68 0 0 Z " fill="#C3A662" transform="translate(531,451)"/>
<path d="M0 0 C2.6374117 -0.00135648 5.27482059 -0.0031019 7.91223145 -0.00531006 C14.30498977 -0.00973487 20.69773629 -0.00880643 27.09049506 -0.00589742 C32.28419145 -0.00363238 37.47788454 -0.00333561 42.67158127 -0.00442123 C43.41275054 -0.00457447 44.15391982 -0.0047277 44.91754877 -0.00488558 C46.42342763 -0.00520532 47.9293065 -0.00552953 49.43518536 -0.00585817 C63.52084799 -0.0087028 77.60650409 -0.00544088 91.69216566 -0.0000578 C103.78013192 0.00441859 115.86808859 0.00362548 127.95605469 -0.00097656 C142.00931531 -0.00632434 156.06257024 -0.00843794 170.11583173 -0.0053643 C171.61288985 -0.00504576 173.10994796 -0.00473138 174.60700607 -0.00442123 C175.34353065 -0.00426696 176.08005522 -0.00411268 176.83889873 -0.00395373 C182.03188913 -0.00308988 187.22487591 -0.00454843 192.41786575 -0.00690079 C199.39629024 -0.00999268 206.37469622 -0.00780194 213.3531189 -0.00200653 C215.91906072 -0.00067999 218.48500406 -0.00107126 221.05094528 -0.0032692 C224.54152234 -0.00598451 228.03204028 -0.00259495 231.52261353 0.00241089 C233.06036562 -0.00093519 233.06036562 -0.00093519 234.62918341 -0.00434887 C236.02644252 -0.00043725 236.02644252 -0.00043725 237.45192909 0.00355339 C238.25786337 0.00371574 239.06379766 0.0038781 239.89415419 0.00404537 C241.97021484 0.12939453 241.97021484 0.12939453 244.97021484 1.12939453 C244.97021484 1.78939453 244.97021484 2.44939453 244.97021484 3.12939453 C245.73333984 3.39751953 246.49646484 3.66564453 247.28271484 3.94189453 C250.79566393 5.49412785 252.30663832 6.87597221 254.09521484 10.25439453 C255.28604136 14.16711024 255.63369948 18.06464314 255.97021484 22.12939453 C256.63021484 22.12939453 257.29021484 22.12939453 257.97021484 22.12939453 C258.64079372 23.91960063 259.30656174 25.71160942 259.97021484 27.50439453 C260.34146484 28.50212891 260.71271484 29.49986328 261.09521484 30.52783203 C261.97021484 33.12939453 261.97021484 33.12939453 261.97021484 35.12939453 C262.63021484 35.12939453 263.29021484 35.12939453 263.97021484 35.12939453 C264.64053204 37.08648133 265.30636168 39.04510567 265.97021484 41.00439453 C266.34146484 42.09494141 266.71271484 43.18548828 267.09521484 44.30908203 C267.97021484 47.12939453 267.97021484 47.12939453 267.97021484 49.12939453 C268.63021484 49.12939453 269.29021484 49.12939453 269.97021484 49.12939453 C270.64307697 51.54448894 271.30867497 53.96119809 271.97021484 56.37939453 C272.25638672 57.40226562 272.25638672 57.40226562 272.54833984 58.44580078 C273.46978528 61.83540365 273.97021484 64.58718429 273.97021484 68.12939453 C274.63021484 68.12939453 275.29021484 68.12939453 275.97021484 68.12939453 C276.47899785 69.68905671 276.97684953 71.25228694 277.47021484 72.81689453 C277.88787109 74.12207031 277.88787109 74.12207031 278.31396484 75.45361328 C278.9687229 78.1233113 279.08852979 80.39336137 278.97021484 83.12939453 C279.63021484 83.12939453 280.29021484 83.12939453 280.97021484 83.12939453 C283.33727544 91.26616532 284.34811415 99.08677713 280.97021484 107.12939453 C278.05505194 109.4465753 276.70439478 110.12939453 272.97021484 110.12939453 C272.97021484 110.78939453 272.97021484 111.44939453 272.97021484 112.12939453 C269.48218185 112.91926817 266.25888838 113.25758024 262.68538189 113.26805973 C261.10814611 113.2762714 261.10814611 113.2762714 259.49904698 113.28464895 C257.77580298 113.28611612 257.77580298 113.28611612 256.01774597 113.28761292 C254.79249169 113.29255089 253.56723741 113.29748887 252.30485421 113.30257648 C248.90707152 113.31527993 245.50932974 113.32357024 242.11153281 113.33000314 C238.44627122 113.33801571 234.78103035 113.35171054 231.11578369 113.36471558 C224.76652361 113.38646616 218.41726143 113.40461584 212.06798363 113.42032051 C202.88799159 113.44303204 193.70802252 113.4711731 184.52804998 113.50063979 C169.63418865 113.54829996 154.74031792 113.59156841 139.84643555 113.63208008 C125.37832915 113.67144302 110.9102311 113.71287116 96.44213867 113.75708008 C95.10444158 113.76116649 95.10444158 113.76116649 93.73972031 113.76533545 C89.26583607 113.77901506 84.79195196 113.79273531 80.31806791 113.80647576 C43.20213422 113.92041579 6.08618272 114.02723062 -31.02978516 114.12939453 C-31.02978516 114.78939453 -31.02978516 115.44939453 -31.02978516 116.12939453 C-34.32978516 116.78939453 -37.62978516 117.44939453 -41.02978516 118.12939453 C-41.02978516 118.78939453 -41.02978516 119.44939453 -41.02978516 120.12939453 C-42.12291016 120.54189453 -43.21603516 120.95439453 -44.34228516 121.37939453 C-47.61002438 122.75355449 -49.00669711 124.19591686 -51.02978516 127.12939453 C-52.01978516 127.12939453 -53.00978516 127.12939453 -54.02978516 127.12939453 C-54.68978516 128.44939453 -55.34978516 129.76939453 -56.02978516 131.12939453 C-56.68978516 131.12939453 -57.34978516 131.12939453 -58.02978516 131.12939453 C-58.31853516 131.70689453 -58.60728516 132.28439453 -58.90478516 132.87939453 C-59.27603516 133.62189453 -59.64728516 134.36439453 -60.02978516 135.12939453 C-60.33916016 135.81001953 -60.64853516 136.49064453 -60.96728516 137.19189453 C-62.02978516 139.12939453 -62.02978516 139.12939453 -63.52978516 140.50439453 C-65.61997894 142.76877113 -66.18522335 145.20591137 -67.02978516 148.12939453 C-68.01978516 148.12939453 -69.00978516 148.12939453 -70.02978516 148.12939453 C-70.21541016 149.70720703 -70.21541016 149.70720703 -70.40478516 151.31689453 C-71.14540023 157.27401578 -72.0987424 163.1996465 -73.02978516 169.12939453 C-73.68978516 169.12939453 -74.34978516 169.12939453 -75.02978516 169.12939453 C-74.98337891 169.99822266 -74.93697266 170.86705078 -74.88916016 171.76220703 C-74.55742961 182.35388944 -74.55742961 182.35388944 -76.84228516 185.94189453 C-77.56416016 186.66376953 -78.28603516 187.38564453 -79.02978516 188.12939453 C-80.01978516 188.12939453 -81.00978516 188.12939453 -82.02978516 188.12939453 C-82.02978516 188.78939453 -82.02978516 189.44939453 -82.02978516 190.12939453 C-85.13504271 191.68202331 -88.42060895 191.26781553 -91.82836914 191.25878906 C-92.63338867 191.26054138 -93.4384082 191.2622937 -94.26782227 191.26409912 C-96.93719621 191.26851149 -99.60650425 191.26558152 -102.27587891 191.26220703 C-104.1267142 191.26288031 -105.97754941 191.26385054 -107.8283844 191.2651062 C-111.71136312 191.26658239 -115.59431887 191.26443137 -119.47729492 191.25976562 C-124.45869752 191.25407236 -129.44004619 191.25734529 -134.4214468 191.26333809 C-138.24494331 191.2669492 -142.06842701 191.26580251 -145.8919239 191.2632103 C-147.72877064 191.26254235 -149.56561853 191.26336486 -151.40246391 191.26568985 C-153.96894288 191.26822491 -156.53533421 191.26436348 -159.10180664 191.25878906 C-159.86399002 191.26081329 -160.6261734 191.26283752 -161.41145325 191.2649231 C-164.55586857 191.25224929 -167.02341595 191.1315176 -170.02978516 190.12939453 C-170.35978516 189.46939453 -170.68978516 188.80939453 -171.02978516 188.12939453 C-172.01978516 187.79939453 -173.00978516 187.46939453 -174.02978516 187.12939453 C-175.98520704 184.14480324 -176.02978516 182.86524663 -176.02978516 179.12939453 C-176.68978516 179.12939453 -177.34978516 179.12939453 -178.02978516 179.12939453 C-178.08772107 174.69194914 -178.12335982 170.25460064 -178.15478516 165.81689453 C-178.17154297 164.55425781 -178.18830078 163.29162109 -178.20556641 161.99072266 C-178.21201172 160.78222656 -178.21845703 159.57373047 -178.22509766 158.32861328 C-178.23557129 157.21317139 -178.24604492 156.09772949 -178.25683594 154.94848633 C-178.02978516 152.12939453 -178.02978516 152.12939453 -176.02978516 149.12939453 C-175.67069353 147.01474382 -175.38954875 144.88643123 -175.15478516 142.75439453 C-174.35567878 136.64469145 -172.95990155 131.07355754 -171.03369141 125.23095703 C-170.07806086 122.27854205 -169.28803882 119.3250484 -168.52978516 116.31689453 C-167.43842752 112.2302347 -165.99181816 108.67591829 -163.99853516 104.95361328 C-162.13468463 101.4438625 -160.66708775 97.7346756 -159.20166016 94.04345703 C-157.38011015 89.64395066 -155.27598471 85.92220424 -152.46728516 82.06689453 C-149.39360333 77.84386587 -147.65076074 74.0776358 -146.02978516 69.12939453 C-144.35765401 65.29332896 -144.35765401 65.29332896 -142.02978516 64.12939453 C-140.89627982 62.11269626 -140.89627982 62.11269626 -140.02978516 60.12939453 C-139.36978516 60.12939453 -138.70978516 60.12939453 -138.02978516 60.12939453 C-138.02978516 59.13939453 -138.02978516 58.14939453 -138.02978516 57.12939453 C-136.63916016 55.69970703 -136.63916016 55.69970703 -134.77978516 54.25439453 C-131.74282352 51.80028411 -129.46126992 49.19126423 -127.02978516 46.12939453 C-126.36978516 46.12939453 -125.70978516 46.12939453 -125.02978516 46.12939453 C-125.02978516 45.46939453 -125.02978516 44.80939453 -125.02978516 44.12939453 C-123.60400391 42.72705078 -123.60400391 42.72705078 -121.71728516 41.19189453 C-119.87426619 39.68115991 -118.10357115 38.20444337 -116.43212891 36.50439453 C-114.79424224 34.89844438 -113.06904988 34.1490269 -111.02978516 33.12939453 C-110.53478516 32.13939453 -110.53478516 32.13939453 -110.02978516 31.12939453 C-108.05089555 30.40245549 -106.05023958 29.73123202 -104.02978516 29.12939453 C-104.02978516 28.46939453 -104.02978516 27.80939453 -104.02978516 27.12939453 C-98.40478516 24.12939453 -98.40478516 24.12939453 -95.02978516 24.12939453 C-94.53478516 22.64439453 -94.53478516 22.64439453 -94.02978516 21.12939453 C-92.37978516 20.79939453 -90.72978516 20.46939453 -89.02978516 20.12939453 C-89.02978516 19.46939453 -89.02978516 18.80939453 -89.02978516 18.12939453 C-86.71978516 17.46939453 -84.40978516 16.80939453 -82.02978516 16.12939453 C-82.02978516 15.46939453 -82.02978516 14.80939453 -82.02978516 14.12939453 C-80.44865596 13.62246761 -78.86477133 13.1241301 -77.27978516 12.62939453 C-76.39806641 12.35095703 -75.51634766 12.07251953 -74.60791016 11.78564453 C-72.02978516 11.12939453 -72.02978516 11.12939453 -68.02978516 11.12939453 C-68.02978516 10.46939453 -68.02978516 9.80939453 -68.02978516 9.12939453 C-64.72978516 8.46939453 -61.42978516 7.80939453 -58.02978516 7.12939453 C-58.02978516 6.46939453 -58.02978516 5.80939453 -58.02978516 5.12939453 C-55.98907 4.79028459 -53.94715894 4.45836749 -51.90478516 4.12939453 C-50.76783203 3.94376953 -49.63087891 3.75814453 -48.45947266 3.56689453 C-45.26840913 3.15983404 -42.24160724 3.05129551 -39.02978516 3.12939453 C-39.02978516 2.46939453 -39.02978516 1.80939453 -39.02978516 1.12939453 C-26.06257028 -0.31078587 -13.02614281 -0.01125433 0 0 Z " fill="#C3A662" transform="translate(479.02978515625,292.87060546875)"/>
<path d="M0 0 C1.9375 0.8125 1.9375 0.8125 4 2 C5.27254898 5.81764694 5.1474742 9.39827038 5.125 13.375 C5.12306641 14.1997583 5.12113281 15.0245166 5.11914062 15.87426758 C5.05357357 25.59549459 4.54074648 35.29553191 4 45 C3.34 45 2.68 45 2 45 C2.0309375 46.21558594 2.061875 47.43117188 2.09375 48.68359375 C2.09375 54.87078975 1.28507644 60.93395281 0.5 67.0625 C0.35691406 68.21427734 0.21382812 69.36605469 0.06640625 70.55273438 C-0.28418352 73.36913886 -0.63975872 76.18481659 -1 79 C-1.33 79 -1.66 79 -2 79 C-2.16209323 72.66485616 -1.67720811 66.60583302 -0.93261719 60.31616211 C0.60951919 47.15839692 1.2901494 34.18368812 1.25 20.9375 C1.24895264 20.17407288 1.24790527 19.41064575 1.24682617 18.62408447 C1.34107097 9.24610316 1.34107097 9.24610316 0 0 Z " fill="#7E5A3C" transform="translate(768,457)"/>
<path d="M0 0 C0.33 0 0.66 0 1 0 C0.88487847 1.72985242 0.75744323 3.45888751 0.625 5.1875 C0.55539063 6.15042969 0.48578125 7.11335938 0.4140625 8.10546875 C-0.00728426 11.05092109 -0.8899648 13.25153646 -2 16 C-2.56490482 18.58396653 -3.08911097 21.15011737 -3.5625 23.75 C-4.86980969 30.86980969 -4.86980969 30.86980969 -6 32 C-6.716521 36.76691123 -7.11457768 41.57619516 -7.5625 46.375 C-7.6310318 47.09742889 -7.6995636 47.81985779 -7.77017212 48.56417847 C-9.35769425 65.70654353 -9.30446758 82.80148514 -9 100 C-9.66 99.67 -10.32 99.34 -11 99 C-11.3798047 62.5738073 -11.3798047 62.5738073 -10.125 45.1875 C-10.04652832 44.07665039 -9.96805664 42.96580078 -9.88720703 41.82128906 C-9.39454167 35.71450801 -8.47879243 29.94623679 -7 24 C-6.34 24 -5.68 24 -5 24 C-4.93941406 23.2265625 -4.87882813 22.453125 -4.81640625 21.65625 C-4.34107401 15.74750457 -3.79085443 9.87491859 -3 4 C-2.01 3.67 -1.02 3.34 0 3 C0 2.01 0 1.02 0 0 Z " fill="#755743" transform="translate(165,376)"/>
<path d="M0 0 C3 1 3 1 4.6875 4.25 C5.83944321 7.54126631 6.31025348 9.5872117 6 13 C6.66 13 7.32 13 8 13 C13.53686036 39.92627927 13.53686036 39.92627927 10 47 C9.34 47 8.68 47 8 47 C8.165 46.030625 8.33 45.06125 8.5 44.0625 C9.50352555 36.95180469 9.02950393 30.07783951 8 23 C7.34 23 6.68 23 6 23 C5.01 18.05 4.02 13.1 3 8 C2.34 8 1.68 8 1 8 C0.67 5.36 0.34 2.72 0 0 Z " fill="#735749" transform="translate(752,353)"/>
<path d="M0 0 C0.66 0 1.32 0 2 0 C1.48771456 4.4824976 -0.15039481 6.58047377 -3 10 C-3.94885339 11.63595412 -4.89470968 13.2739446 -5.80859375 14.9296875 C-7.24632756 17.42804461 -8.80724149 19.83117259 -10.375 22.25 C-12.81881896 26.04917038 -15.06488754 29.8877128 -17.1875 33.875 C-19.16105581 37.57343302 -21.18507113 40.86027164 -24 44 C-23.505 41.03 -23.505 41.03 -23 38 C-22.34 38 -21.68 38 -21 38 C-20.855625 37.401875 -20.71125 36.80375 -20.5625 36.1875 C-20.1127561 34.43849596 -19.57107659 32.71322977 -19 31 C-18.34 31 -17.68 31 -17 31 C-17 29.68 -17 28.36 -17 27 C-16.34 26.67 -15.68 26.34 -15 26 C-13.94647157 23.69034152 -12.94280904 21.3570226 -12 19 C-11.34 19 -10.68 19 -10 19 C-9.71125 18.0925 -9.4225 17.185 -9.125 16.25 C-6.74418605 9.37209302 -6.74418605 9.37209302 -4 8 C-2.87775145 6.11986894 -2.87775145 6.11986894 -1.875 3.9375 C-1.52179688 3.20402344 -1.16859375 2.47054688 -0.8046875 1.71484375 C-0.53914063 1.14894531 -0.27359375 0.58304687 0 0 Z " fill="#856B51" transform="translate(215,266)"/>
<path d="M0 0 C0.33 0 0.66 0 1 0 C1.42903053 43.42742367 1.42903053 43.42742367 -6 62 C-6.391875 63.010625 -6.78375 64.02125 -7.1875 65.0625 C-7.455625 65.701875 -7.72375 66.34125 -8 67 C-9.37344385 62.60155678 -8.24307502 59.07495445 -7.0625 54.75 C-6.86720703 54.00492188 -6.67191406 53.25984375 -6.47070312 52.4921875 C-5.98895802 50.65920614 -5.49560775 48.82928182 -5 47 C-4.34 47 -3.68 47 -3 47 C-2.95101562 46.12085938 -2.90203125 45.24171875 -2.8515625 44.3359375 C-2.00584557 29.55047264 -0.99764095 14.77583215 0 0 Z " fill="#8B7B69" transform="translate(666,471)"/>
<path d="M0 0 C0.66 0 1.32 0 2 0 C2 1.65 2 3.3 2 5 C1.34 5 0.68 5 0 5 C-0.12375 5.969375 -0.2475 6.93875 -0.375 7.9375 C-0.99863809 12.34815777 -1.98746506 16.66477759 -3 21 C-3.66 21 -4.32 21 -5 21 C-5.1546875 22.7634375 -5.1546875 22.7634375 -5.3125 24.5625 C-5.82914958 28.82485903 -7.1508361 32.14087534 -9 36 C-9.66 36 -10.32 36 -11 36 C-11.33 36.66 -11.66 37.32 -12 38 C-11.67 35.69 -11.34 33.38 -11 31 C-10.34 31 -9.68 31 -9 31 C-7.68 25.06 -6.36 19.12 -5 13 C-4.34 13 -3.68 13 -3 13 C-2.86722656 12.31292969 -2.73445312 11.62585938 -2.59765625 10.91796875 C-2.42105469 10.01691406 -2.24445312 9.11585938 -2.0625 8.1875 C-1.80146484 6.84751953 -1.80146484 6.84751953 -1.53515625 5.48046875 C-1 3 -1 3 0 0 Z " fill="#7B5E49" transform="translate(758,563)"/>
<path d="M0 0 C2 0 2 0 3.47265625 1.3203125 C6.82766483 5.12870062 8.74282219 7.72785482 9 13 C9.66 13 10.32 13 11 13 C11.7807571 22.90694006 11.7807571 22.90694006 8.8125 27.0625 C6.23095993 28.84089427 3.98255999 30.062624 1 31 C2.375 28.5 2.375 28.5 4 26 C4.66 26 5.32 26 6 26 C7.52814822 20.26944418 7.88136486 13.64409459 6 8 C5.175 7.175 4.35 6.35 3.5 5.5 C1 3 1 3 0 0 Z " fill="#5F525F" transform="translate(663,215)"/>
<path d="M0 0 C0.66 0 1.32 0 2 0 C2 1.98 2 3.96 2 6 C1.34 6 0.68 6 0 6 C-0.1546875 7.7634375 -0.1546875 7.7634375 -0.3125 9.5625 C-1.06380475 16.45682595 -2.57946568 23.21895881 -4 30 C-4.66 30 -5.32 30 -6 30 C-6.33 32.31 -6.66 34.62 -7 37 C-7.66 37 -8.32 37 -9 37 C-8.30834212 31.58201328 -7.24200752 26.3177215 -6 21 C-5.34 21 -4.68 21 -4 21 C-3.8453125 19.14375 -3.8453125 19.14375 -3.6875 17.25 C-3.04831894 11.35637468 -1.53722003 5.71381786 0 0 Z " fill="#795A43" transform="translate(621,499)"/>
<path d="M0 0 C0.66 0 1.32 0 2 0 C1.31749931 4.75880621 -0.5023604 8.83245058 -2.4375 13.1875 C-2.90639648 14.27321289 -2.90639648 14.27321289 -3.38476562 15.38085938 C-5.74497768 20.74497768 -5.74497768 20.74497768 -8 23 C-8.59834554 24.52056618 -9.13506656 26.06612088 -9.625 27.625 C-9.88539063 28.44226563 -10.14578125 29.25953125 -10.4140625 30.1015625 C-10.60742188 30.72804688 -10.80078125 31.35453125 -11 32 C-11.33 32 -11.66 32 -12 32 C-11.43179252 26.54520815 -10.05362055 22.08940744 -8 17 C-7.34 17 -6.68 17 -6 17 C-5.814375 15.4221875 -5.814375 15.4221875 -5.625 13.8125 C-5.08859218 10.54041229 -4.36119965 7.99463924 -3 5 C-2.34 5 -1.68 5 -1 5 C-0.67 3.35 -0.34 1.7 0 0 Z " fill="#79604F" transform="translate(189,310)"/>
<path d="M0 0 C0.99 0.33 1.98 0.66 3 1 C2.06915029 2.77433812 1.13005387 4.54435149 0.1875 6.3125 C-0.59560547 7.79169922 -0.59560547 7.79169922 -1.39453125 9.30078125 C-2.79639002 11.65767763 -4.08229434 13.10856428 -6 15 C-7.10498597 16.98787273 -7.10498597 16.98787273 -8 19.1875 C-8.33515625 19.97382813 -8.6703125 20.76015625 -9.015625 21.5703125 C-10.4146094 25.02336129 -11.72675868 28.49858636 -13 32 C-13.33 32 -13.66 32 -14 32 C-13.18081069 22.10505541 -13.18081069 22.10505541 -11 18 C-10.34 17.67 -9.68 17.34 -9 17 C-7.87775145 15.11986894 -7.87775145 15.11986894 -6.875 12.9375 C-6.34519531 11.83728516 -6.34519531 11.83728516 -5.8046875 10.71484375 C-5.53914063 10.14894531 -5.27359375 9.58304687 -5 9 C-4.34 9 -3.68 9 -3 9 C-2.87625 8.2575 -2.7525 7.515 -2.625 6.75 C-2.04513299 4.19858515 -1.26291261 2.2732427 0 0 Z " fill="#7D5E46" transform="translate(329,366)"/>
<path d="M0 0 C0.66 0 1.32 0 2 0 C1.15021429 4.70214759 -0.10549544 9.27304598 -1.375 13.875 C-1.68824219 15.04095703 -1.68824219 15.04095703 -2.0078125 16.23046875 C-3.73134384 22.48352451 -6.00155958 28.23376843 -9 34 C-8.51679152 27.7945858 -7.66681876 22.00054754 -6 16 C-5.34 16 -4.68 16 -4 16 C-4 13.36 -4 10.72 -4 8 C-3.34 8 -2.68 8 -2 8 C-1.34 5.36 -0.68 2.72 0 0 Z " fill="#785C49" transform="translate(175,342)"/>
<path d="M0 0 C1.31246762 3.67314762 0.67633026 6.22118533 -0.3125 9.9375 C-0.57675781 10.95714844 -0.84101563 11.97679687 -1.11328125 13.02734375 C-2 16 -2 16 -3.046875 18.43359375 C-4.64766507 22.74391782 -4.84458345 27.27161112 -5.33984375 31.8203125 C-6.00205532 35.00989958 -6.4429485 36.09092068 -9 38 C-9 36.35 -9 34.7 -9 33 C-8.34 33 -7.68 33 -7 33 C-7.061875 31.96875 -7.12375 30.9375 -7.1875 29.875 C-7.22233544 23.44205621 -5.46876321 17.22475837 -4 11 C-3.34 11 -2.68 11 -2 11 C-2.061875 9.1128125 -2.061875 9.1128125 -2.125 7.1875 C-2.2390374 3.70935927 -2.05925681 3.08888522 0 0 Z " fill="#775943" transform="translate(310,407)"/>
<path d="M0 0 C0.66 0 1.32 0 2 0 C2.23505261 5.75878901 1.84455434 10.46633697 0 16 C-0.34135927 17.33130115 -0.67925956 18.66358148 -1 20 C-1.66 20 -2.32 20 -3 20 C-3.33 21.32 -3.66 22.64 -4 24 C-4.15265182 18.88284537 -3.62944468 14.17484605 -2.5625 9.1875 C-2.42779297 8.52041016 -2.29308594 7.85332031 -2.15429688 7.16601562 C-1.14608434 2.29216867 -1.14608434 2.29216867 0 0 Z " fill="#6A5655" transform="translate(764,538)"/>
<path d="M0 0 C0.66 0 1.32 0 2 0 C1.34 3.63 0.68 7.26 0 11 C-0.66 11 -1.32 11 -2 11 C-2.04898437 11.6290625 -2.09796875 12.258125 -2.1484375 12.90625 C-2.63435199 18.46913314 -3.50553626 23.61993052 -5 29 C-5.66 29 -6.32 29 -7 29 C-7 27.35 -7 25.7 -7 24 C-6.34 24 -5.68 24 -5 24 C-5.061875 23.113125 -5.12375 22.22625 -5.1875 21.3125 C-5.22410208 15.4073649 -3.43634071 9.68551532 -2 4 C-1.34 4 -0.68 4 0 4 C0 2.68 0 1.36 0 0 Z " fill="#918066" transform="translate(268,394)"/>
<path d="M0 0 C1.24153433 3.724603 0.47452539 4.47752269 -1 8 C-1.37593066 9.9924325 -1.71979545 11.9918674 -2 14 C-1.34 14 -0.68 14 0 14 C2.27678571 22.03571429 2.27678571 22.03571429 1 26 C0.67 24.68 0.34 23.36 0 22 C-0.66 22 -1.32 22 -2 22 C-3.1668861 18.30486069 -3.13310829 14.79299017 -3.125 10.9375 C-3.12757813 9.70902344 -3.13015625 8.48054687 -3.1328125 7.21484375 C-3 4 -3 4 -2 1 C-1.34 0.67 -0.68 0.34 0 0 Z " fill="#6C534B" transform="translate(165,537)"/>
<path d="M0 0 C0.99 0.33 1.98 0.66 3 1 C1.8553125 1.804375 1.8553125 1.804375 0.6875 2.625 C-3.10259901 5.97438983 -4.8538522 8.69658363 -5.1796875 13.83203125 C-5.18669614 16.56189844 -5.13098636 19.27354327 -5 22 C-4.34 22 -3.68 22 -3 22 C-2.67 23.65 -2.34 25.3 -2 27 C-5 26 -5 26 -6.171875 23.8125 C-7.0759333 20.7421133 -7.26631001 18.1967619 -7.25 15 C-7.25515625 13.989375 -7.2603125 12.97875 -7.265625 11.9375 C-6.99363426 8.9296024 -6.26321118 6.72693207 -5 4 C-4.34 4 -3.68 4 -3 4 C-2.67 3.01 -2.34 2.02 -2 1 C-1.34 0.67 -0.68 0.34 0 0 Z " fill="#755642" transform="translate(260,689)"/>
<path d="M0 0 C0.33 0.99 0.66 1.98 1 3 C0.56131592 3.37809814 0.12263184 3.75619629 -0.3293457 4.14575195 C-2.32477891 5.86679001 -4.31865243 7.58962528 -6.3125 9.3125 C-7.34793945 10.20485352 -7.34793945 10.20485352 -8.40429688 11.11523438 C-9.07138672 11.69208984 -9.73847656 12.26894531 -10.42578125 12.86328125 C-11.03848877 13.39219971 -11.65119629 13.92111816 -12.2824707 14.46606445 C-14.02647703 15.97942713 -14.02647703 15.97942713 -15.59838867 17.69604492 C-17 19 -17 19 -19 19 C-16 13 -16 13 -12 11 C-11.67 10.34 -11.34 9.68 -11 9 C-9.33333333 8 -7.66666667 7 -6 6 C-5.67 5.34 -5.34 4.68 -5 4 C-3.66666667 3.33333333 -2.33333333 2.66666667 -1 2 C-0.67 1.34 -0.34 0.68 0 0 Z " fill="#A58D61" transform="translate(276,202)"/>
<path d="M0 0 C0.99 0 1.98 0 3 0 C3.67305018 1.60149886 4.33822227 3.20631029 5 4.8125 C5.37125 5.70582031 5.7425 6.59914063 6.125 7.51953125 C7 10 7 10 7 13 C7.66 13 8.32 13 9 13 C9.33 15.64 9.66 18.28 10 21 C9.67 20.01 9.34 19.02 9 18 C8.34 18 7.68 18 7 18 C6.32694982 16.39850114 5.66177773 14.79368971 5 13.1875 C4.62875 12.29417969 4.2575 11.40085937 3.875 10.48046875 C3 8 3 8 3 5 C2.34 5 1.68 5 1 5 C0.67 3.35 0.34 1.7 0 0 Z " fill="#7A614F" transform="translate(734,310)"/>
<path d="M0 0 C3 1 3 1 4.6875 4.25 C5.83944321 7.54126631 6.31025348 9.5872117 6 13 C6.66 13 7.32 13 8 13 C8 14.32 8 15.64 8 17 C7.34 17 6.68 17 6 17 C5.01 14.03 4.02 11.06 3 8 C2.34 8 1.68 8 1 8 C0.67 5.36 0.34 2.72 0 0 Z " fill="#55516D" transform="translate(752,353)"/>
<path d="M0 0 C2 3.75 2 3.75 2 6 C2.99 6.33 3.98 6.66 5 7 C5.984375 8.7421875 5.984375 8.7421875 6.75 10.875 C7.01296875 11.57367187 7.2759375 12.27234375 7.546875 12.9921875 C8 15 8 15 7 18 C6.34 17.67 5.68 17.34 5 17 C5 15.68 5 14.36 5 13 C4.01 13 3.02 13 2 13 C-0.28571429 4.57142857 -0.28571429 4.57142857 0 0 Z " fill="#68585A" transform="translate(184,610)"/>
<path d="M0 0 C0.66 0.33 1.32 0.66 2 1 C1.5875 1.52207031 1.175 2.04414063 0.75 2.58203125 C-3.98365757 8.61533141 -8.52095369 14.77587072 -13 21 C-13.33 20.01 -13.66 19.02 -14 18 C-11.66666667 13.33333333 -11.66666667 13.33333333 -9 12 C-7.86649466 9.98330173 -7.86649466 9.98330173 -7 8 C-6.34 8 -5.68 8 -5 8 C-5 7.01 -5 6.02 -5 5 C-2.5 2.3125 -2.5 2.3125 0 0 Z " fill="#84694E" transform="translate(346,345)"/>
<path d="M0 0 C0.33 0 0.66 0 1 0 C1 7.92 1 15.84 1 24 C1.66 24 2.32 24 3 24 C5.125 28.625 5.125 28.625 4 32 C3.67 31.01 3.34 30.02 3 29 C2.34 29 1.68 29 1 29 C-0.38308781 26.23382437 -0.11210196 23.98982 -0.09765625 20.8984375 C-0.09443359 19.68671875 -0.09121094 18.475 -0.08789062 17.2265625 C-0.07951172 15.95554687 -0.07113281 14.68453125 -0.0625 13.375 C-0.05798828 12.09625 -0.05347656 10.8175 -0.04882812 9.5 C-0.03701203 6.33328708 -0.02053815 3.16666644 0 0 Z " fill="#765742" transform="translate(300,448)"/>
<path d="M0 0 C0.33 0 0.66 0 1 0 C1 1.98 1 3.96 1 6 C0.34 6 -0.32 6 -1 6 C-1.33 7.98 -1.66 9.96 -2 12 C-2.66 12 -3.32 12 -4 12 C-4.33 13.65 -4.66 15.3 -5 17 C-5.66 17 -6.32 17 -7 17 C-6.32829194 13.1936543 -5.27253436 9.64793184 -4 6 C-3.34 6 -2.68 6 -2 6 C-1.34 4.02 -0.68 2.04 0 0 Z " fill="#6F5E5C" transform="translate(739,615)"/>
<path d="M0 0 C0.99 0.495 0.99 0.495 2 1 C2.625 3.5625 2.625 3.5625 3 6 C3.66 6 4.32 6 5 6 C7.10575375 11.52760359 8.37851209 16.06997733 8 22 C5.87953208 18.46588679 5.46800711 15.05606165 5 11 C4.34 11 3.68 11 3 11 C2.49632243 9.54293274 1.99717444 8.08429904 1.5 6.625 C1.2215625 5.81289063 0.943125 5.00078125 0.65625 4.1640625 C0 2 0 2 0 0 Z " fill="#755C4F" transform="translate(744,331)"/>
<path d="M0 0 C0.66 0 1.32 0 2 0 C2 0.66 2 1.32 2 2 C1.01 2.495 1.01 2.495 0 3 C-1.04808041 4.97522846 -2.0520411 6.97481509 -3 9 C-3.66 9 -4.32 9 -5 9 C-5.2475 9.78375 -5.495 10.5675 -5.75 11.375 C-7.19494285 14.40937999 -8.05565819 14.67029725 -11 16 C-11.33 16.99 -11.66 17.98 -12 19 C-12.33 18.01 -12.66 17.02 -13 16 C-12.236875 15.278125 -11.47375 14.55625 -10.6875 13.8125 C-8.28145128 11.29454204 -6.73827665 8.97990283 -5 6 C-4.34 5.67 -3.68 5.34 -3 5 C-2.505 4.154375 -2.01 3.30875 -1.5 2.4375 C-1.005 1.633125 -0.51 0.82875 0 0 Z " fill="#877058" transform="translate(712,662)"/>
<path d="M0 0 C0.66 0 1.32 0 2 0 C2 3.3 2 6.6 2 10 C1.34 10 0.68 10 0 10 C-0.33 15.28 -0.66 20.56 -1 26 C-1.33 26 -1.66 26 -2 26 C-2.3189892 17.22779709 -1.11636806 8.68175521 0 0 Z " fill="#53577B" transform="translate(261,423)"/>
<path d="M0 0 C0.33 0 0.66 0 1 0 C0.88487847 1.72985242 0.75744323 3.45888751 0.625 5.1875 C0.52058594 6.63189453 0.52058594 6.63189453 0.4140625 8.10546875 C-0.00215853 11.01508938 -0.79874096 13.32890774 -2 16 C-2.33 16 -2.66 16 -3 16 C-3 12.04 -3 8.08 -3 4 C-2.01 3.67 -1.02 3.34 0 3 C0 2.01 0 1.02 0 0 Z " fill="#735849" transform="translate(165,376)"/>
<path d="M0 0 C2 0 2 0 3.47265625 1.4609375 C4.25962891 2.40839844 4.25962891 2.40839844 5.0625 3.375 C5.85333984 4.31472656 5.85333984 4.31472656 6.66015625 5.2734375 C9.25385157 8.61575042 9.10694113 10.94753423 9.0625 15.125 C9.05347656 16.22070312 9.04445313 17.31640625 9.03515625 18.4453125 C9.02355469 19.28835937 9.01195312 20.13140625 9 21 C8.67 21 8.34 21 8 21 C7.87044922 19.67935547 7.87044922 19.67935547 7.73828125 18.33203125 C7.19074895 10.9238734 7.19074895 10.9238734 3.4375 4.875 C2.633125 4.25625 1.82875 3.6375 1 3 C0.67 2.01 0.34 1.02 0 0 Z " fill="#775944" transform="translate(663,215)"/>
<path d="M0 0 C1.9375 0.8125 1.9375 0.8125 4 2 C4.94137255 4.82411765 5.11725382 6.52918032 5.09765625 9.44921875 C5.09282227 10.72055664 5.09282227 10.72055664 5.08789062 12.01757812 C5.07951172 12.89865234 5.07113281 13.77972656 5.0625 14.6875 C5.05798828 15.58017578 5.05347656 16.47285156 5.04882812 17.39257812 C5.03704983 19.59511987 5.02060164 21.79752599 5 24 C4.67 24 4.34 24 4 24 C4 18.06 4 12.12 4 6 C3.01 5.67 2.02 5.34 1 5 C0.67 3.35 0.34 1.7 0 0 Z " fill="#6A5552" transform="translate(768,457)"/>
<path d="M0 0 C-0.5647301 3.90829085 -2.42131971 5.89920223 -5.0625 8.75 C-6.16271484 9.94882812 -6.16271484 9.94882812 -7.28515625 11.171875 C-7.85105469 11.77515625 -8.41695312 12.3784375 -9 13 C-10 10 -10 10 -8.875 7.625 C-3.42857143 0 -3.42857143 0 0 0 Z " fill="#917653" transform="translate(228,253)"/>
<path d="M0 0 C0.33 1.32 0.66 2.64 1 4 C1.66 4 2.32 4 3 4 C3.53190541 5.43344 4.05015258 6.87195367 4.5625 8.3125 C4.85253906 9.11300781 5.14257812 9.91351562 5.44140625 10.73828125 C6 13 6 13 5 16 C3.5393715 13.35261084 3 12.10551666 3 9 C2.34 9 1.68 9 1 9 C0.67 6.03 0.34 3.06 0 0 Z " fill="#7A5D45" transform="translate(174,586)"/>
<path d="M0 0 C0.99 0.33 1.98 0.66 3 1 C2.04855402 2.81612488 1.08863067 4.62781081 0.125 6.4375 C-0.40867187 7.44683594 -0.94234375 8.45617187 -1.4921875 9.49609375 C-3 12 -3 12 -5 13 C-5 11.68 -5 10.36 -5 9 C-4.34 9 -3.68 9 -3 9 C-2.87625 8.2575 -2.7525 7.515 -2.625 6.75 C-2.04513299 4.19858515 -1.26291261 2.2732427 0 0 Z " fill="#816349" transform="translate(329,366)"/>
<path d="M0 0 C1.13508688 3.3515741 0.87309359 5.35675676 -0.25 8.6875 C-0.50265625 9.47511719 -0.7553125 10.26273438 -1.015625 11.07421875 C-2 13 -2 13 -5 14 C-4.67 11.69 -4.34 9.38 -4 7 C-3.34 7 -2.68 7 -2 7 C-1.34 4.69 -0.68 2.38 0 0 Z " fill="#7D624C" transform="translate(745,601)"/>
<path d="M0 0 C0.99 0 1.98 0 3 0 C3 1.65 3 3.3 3 5 C2.34 5 1.68 5 1 5 C0.67 7.31 0.34 9.62 0 12 C-0.66 12 -1.32 12 -2 12 C-1.44687265 7.97007218 -0.8441938 3.97977076 0 0 Z " fill="#6E5851" transform="translate(614,524)"/>
<path d="M0 0 C0.66 0 1.32 0 2 0 C2.53394179 1.4117783 3.05165104 2.82970244 3.5625 4.25 C3.85253906 5.03890625 4.14257812 5.8278125 4.44140625 6.640625 C5.04522837 9.19103452 4.8473932 10.55322229 4 13 C3.34 10.69 2.68 8.38 2 6 C1.34 6 0.68 6 0 6 C0 4.02 0 2.04 0 0 Z " fill="#745847" transform="translate(169,573)"/>
<path d="M0 0 C0.99 0.33 1.98 0.66 3 1 C1.8553125 1.804375 1.8553125 1.804375 0.6875 2.625 C-2.22864474 5.20205814 -3.4705622 7.45814404 -5 11 C-6.04449911 7.86650268 -5.93423645 7.01031744 -5 4 C-4.34 4 -3.68 4 -3 4 C-2.67 3.01 -2.34 2.02 -2 1 C-1.34 0.67 -0.68 0.34 0 0 Z " fill="#7F5A3A" transform="translate(260,689)"/>
<path d="M0 0 C0.99 0 1.98 0 3 0 C3 1.32 3 2.64 3 4 C2.34 4 1.68 4 1 4 C0.67 6.64 0.34 9.28 0 12 C-0.33 12 -0.66 12 -1 12 C-1.14285714 3.42857143 -1.14285714 3.42857143 0 0 Z " fill="#6F5A56" transform="translate(752,580)"/>
<path d="M0 0 C0.33 0.99 0.66 1.98 1 3 C0.01 3.33 -0.98 3.66 -2 4 C-2.60061233 5.90178785 -2.60061233 5.90178785 -3 8 C-3.99 9.485 -3.99 9.485 -5 11 C-5.66 11 -6.32 11 -7 11 C-7 8 -7 8 -5.625 6.5625 C-5.08875 6.046875 -4.5525 5.53125 -4 5 C-3.649375 4.29875 -3.29875 3.5975 -2.9375 2.875 C-2 1 -2 1 0 0 Z " fill="#81664E" transform="translate(594,568)"/>
<path d="M0 0 C0.33 0 0.66 0 1 0 C1.02694851 1.95825873 1.04637218 3.91662226 1.0625 5.875 C1.07410156 6.96554687 1.08570313 8.05609375 1.09765625 9.1796875 C1 12 1 12 0 14 C-0.66 14 -1.32 14 -2 14 C-2.33 14.99 -2.66 15.98 -3 17 C-2.67 14.69 -2.34 12.38 -2 10 C-1.34 10 -0.68 10 0 10 C0 6.7 0 3.4 0 0 Z " fill="#988668" transform="translate(520,471)"/>
<path d="M0 0 C0.99 0 1.98 0 3 0 C3 0.99 3 1.98 3 3 C2.34 3 1.68 3 1 3 C0.67 6.3 0.34 9.6 0 13 C-0.33 13 -0.66 13 -1 13 C-1.07654536 8.48382401 -1.10228696 4.40914783 0 0 Z " fill="#5D5F7B" transform="translate(660,515)"/>
<path d="M0 0 C0.66 0 1.32 0 2 0 C2 2.31 2 4.62 2 7 C1.34 7 0.68 7 0 7 C-0.33 8.65 -0.66 10.3 -1 12 C-2.45606519 7.47907032 -1.27032841 4.48351204 0 0 Z " fill="#5F617B" transform="translate(409,441)"/>
<path d="M0 0 C0.99 0.33 1.98 0.66 3 1 C3.33 3.97 3.66 6.94 4 10 C3.67 9.34 3.34 8.68 3 8 C2.34 8 1.68 8 1 8 C0.67 5.36 0.34 2.72 0 0 Z " fill="#7F5D41" transform="translate(752,353)"/>
<path d="M0 0 C0.33 0 0.66 0 1 0 C1 1.98 1 3.96 1 6 C0.34 6 -0.32 6 -1 6 C-1.33 6.99 -1.66 7.98 -2 9 C-2.66 9 -3.32 9 -4 9 C-4 8.01 -4 7.02 -4 6 C-3.34 6 -2.68 6 -2 6 C-1.34 4.02 -0.68 2.04 0 0 Z " fill="#7D6350" transform="translate(739,615)"/>
<path d="M0 0 C0.33 0.99 0.66 1.98 1 3 C1.66 3 2.32 3 3 3 C3.33 4.65 3.66 6.3 4 8 C2.68 8 1.36 8 0 8 C0 5.36 0 2.72 0 0 Z " fill="#6D5953" transform="translate(180,602)"/>
<path d="M0 0 C0.33 0.66 0.66 1.32 1 2 C0.0625 4.125 0.0625 4.125 -1 6 C-1.66 6 -2.32 6 -3 6 C-3.12375 6.639375 -3.2475 7.27875 -3.375 7.9375 C-3.58125 8.618125 -3.7875 9.29875 -4 10 C-4.99 10.495 -4.99 10.495 -6 11 C-4.125 5.25 -4.125 5.25 -3 3 C-2.34 3 -1.68 3 -1 3 C-0.67 2.01 -0.34 1.02 0 0 Z " fill="#81644A" transform="translate(601,557)"/>
<path d="M0 0 C0 4.38968456 -2.12805101 5.76905739 -5 9 C-5.33 8.01 -5.66 7.02 -6 6 C-4 4 -2 2 0 0 Z " fill="#967B55" transform="translate(235,243)"/>
<path d="M0 0 C0.95465783 2.16967689 1.14401212 3.56328793 0.3984375 5.82421875 C-0.35870385 7.5684743 -1.17609198 9.28627131 -2 11 C-2.99 11 -3.98 11 -5 11 C-5 10.01 -5 9.02 -5 8 C-4.34 7.67 -3.68 7.34 -3 7 C-1.94647157 4.69034152 -0.94280904 2.3570226 0 0 Z " fill="#725C52" transform="translate(323,376)"/>
<path d="M0 0 C0.66 0 1.32 0 2 0 C3.5625 2.8125 3.5625 2.8125 5 6 C4.67 6.99 4.34 7.98 4 9 C3.34 7.35 2.68 5.7 2 4 C1.34 4 0.68 4 0 4 C0 2.68 0 1.36 0 0 Z " fill="#7A6250" transform="translate(192,628)"/>
<path d="M0 0 C0.66 0.33 1.32 0.66 2 1 C-1.465 3.97 -1.465 3.97 -5 7 C-5.66 6.67 -6.32 6.34 -7 6 C-2.25 1.125 -2.25 1.125 0 0 Z " fill="#B0A278" transform="translate(603,627)"/>
<path d="M0 0 C0.99 0 1.98 0 3 0 C2.46930939 3.82097239 1.50298434 6.06171403 -1 9 C-0.67 6.03 -0.34 3.06 0 0 Z " fill="#775B48" transform="translate(312,398)"/>
<path d="M0 0 C0.66 0 1.32 0 2 0 C1.67 2.31 1.34 4.62 1 7 C0.01 7.33 -0.98 7.66 -2 8 C-2 6.68 -2 5.36 -2 4 C-1.34 4 -0.68 4 0 4 C0 2.68 0 1.36 0 0 Z " fill="#9E8863" transform="translate(268,394)"/>
</svg>
